<?xml version="1.0" encoding="UTF-8"?>
<!-- Generator: Adobe Illustrator 25.4.1, SVG Export Plug-In . SVG Version: 6.00 Build 0)  -->
<svg xmlns="http://www.w3.org/2000/svg" xmlns:xlink="http://www.w3.org/1999/xlink" version="1.0" id="Layer_1" x="0px" y="0px" viewBox="0 0 120 40" style="enable-background:new 0 0 120 40;" xml:space="preserve">
<style type="text/css">
	.st0{fill:#231F20;}
</style>
<g>
	<g id="XMLID_1_">
		<g>
			<path class="st0" d="M115.5,25.2v1.8c-0.4,0.1-0.8,0.2-1.2,0.2c-0.4,0.1-0.9,0.1-1.2,0.1c-1.2,0-2.2-0.3-2.8-1     c-0.6-0.7-1-1.7-1-3.2v-6.4h-1.4v-1.7h1.4v-3.5h2v3.5h4.2v1.7h-4.2v5.5c0,0.6,0,1.1,0,1.5c0,0.4,0.1,0.7,0.3,1     c0.2,0.3,0.4,0.5,0.7,0.6c0.3,0.1,0.7,0.2,1.3,0.2c0.3,0,0.7,0,1-0.1c0.4-0.1,0.6-0.2,0.8-0.3H115.5z"></path>
			<path class="st0" d="M98.2,16.5c1.1-1.2,2.5-1.7,4.2-1.7c1.6,0,2.9,0.5,3.8,1.4c0.9,0.9,1.3,2.3,1.3,4v1.1h-8.9     c0,0.7,0.1,1.4,0.3,1.9c0.2,0.5,0.5,1,0.9,1.3c0.4,0.3,0.8,0.6,1.3,0.8c0.5,0.2,1.1,0.3,1.7,0.3c0.8,0,1.6-0.2,2.5-0.5     c0.8-0.3,1.4-0.7,1.8-1h0.1v2.2c-0.7,0.3-1.4,0.5-2.1,0.7c-0.7,0.2-1.5,0.3-2.2,0.3c-2,0-3.6-0.5-4.7-1.6     c-1.1-1.1-1.7-2.6-1.7-4.6C96.5,19.2,97.1,17.7,98.2,16.5z M105.5,19.8c0-1.1-0.3-1.9-0.8-2.5c-0.5-0.6-1.3-0.9-2.4-0.9     c-1.1,0-2,0.3-2.6,1c-0.6,0.6-1,1.4-1.1,2.4H105.5z"></path>
			<path class="st0" d="M87.7,16.5c0.6-0.5,1.3-0.9,2-1.2c0.7-0.3,1.4-0.4,2.1-0.4c1.3,0,2.3,0.4,3,1.2c0.7,0.8,1,1.9,1,3.4v7.8h-2     v-6.8c0-0.6,0-1.1-0.1-1.6c-0.1-0.5-0.2-0.9-0.4-1.1c-0.2-0.3-0.4-0.5-0.8-0.7c-0.3-0.1-0.8-0.2-1.3-0.2c-0.6,0-1.1,0.1-1.7,0.4     c-0.6,0.3-1.2,0.6-1.7,1v9h-2v-12h2V16.5z"></path>
			<path class="st0" d="M84.1,15.1v3.7h-0.3c-0.2-0.1-0.4-0.1-0.8-0.1c-0.4,0-0.7,0-0.9,0c-0.5,0-1,0-1.5,0.1     c-0.4,0.1-0.9,0.2-1.4,0.4v8.1h-3.9V15.1h3.9v1.8c0.9-0.7,1.6-1.2,2.2-1.5c0.6-0.2,1.2-0.4,1.7-0.4c0.1,0,0.3,0,0.5,0     C83.9,15,84,15,84.1,15.1z"></path>
			<path class="st0" d="M63.4,18.2H63v-2.9c0.4-0.1,1.1-0.2,2-0.4c0.9-0.1,1.8-0.2,2.8-0.2c2.2,0,3.8,0.3,4.8,1     c1,0.7,1.5,1.8,1.5,3.2v8.2h-3.8v-1.3c-0.2,0.2-0.5,0.3-0.8,0.6c-0.3,0.2-0.6,0.4-0.9,0.5c-0.4,0.2-0.8,0.3-1.2,0.4     c-0.4,0.1-0.9,0.1-1.3,0.1c-1.1,0-2.1-0.4-2.9-1.1c-0.8-0.7-1.2-1.6-1.2-2.7c0-0.9,0.2-1.6,0.6-2.2c0.4-0.6,1-1,1.7-1.3     c0.7-0.3,1.6-0.6,2.7-0.7c1.1-0.1,2.2-0.2,3.3-0.3v-0.1c0-0.7-0.3-1.1-0.8-1.4c-0.5-0.3-1.3-0.4-2.4-0.4c-0.6,0-1.3,0.1-2,0.3     C64.2,17.9,63.7,18.1,63.4,18.2z M70.2,24v-2.5c-0.5,0-1.1,0.1-1.7,0.2c-0.6,0.1-1.1,0.2-1.4,0.3c-0.4,0.1-0.7,0.3-0.9,0.5     c-0.2,0.2-0.3,0.5-0.3,0.9c0,0.2,0,0.5,0.1,0.6c0,0.2,0.1,0.3,0.3,0.4c0.2,0.1,0.4,0.2,0.6,0.3c0.2,0.1,0.6,0.1,1.1,0.1     c0.4,0,0.8-0.1,1.2-0.2C69.5,24.5,69.9,24.2,70.2,24z"></path>
			<path class="st0" d="M54,17.4c-0.6,0-1.3,0.1-2,0.3c-0.7,0.2-1.2,0.4-1.6,0.5H50v-2.9c0.4-0.1,1.1-0.2,2-0.4     c0.9-0.1,1.8-0.2,2.8-0.2c2.2,0,3.8,0.3,4.8,1c1,0.7,1.5,1.8,1.5,3.2v8.2h-3.8v-1.3c-0.2,0.2-0.5,0.3-0.8,0.6     c-0.3,0.2-0.6,0.4-0.9,0.5c-0.4,0.2-0.8,0.3-1.2,0.4c-0.4,0.1-0.9,0.1-1.3,0.1c-1.1,0-2.1-0.4-2.9-1.1c-0.8-0.7-1.2-1.6-1.2-2.7     c0-0.9,0.2-1.6,0.6-2.2c0.4-0.6,1-1,1.7-1.3c0.7-0.3,1.6-0.6,2.7-0.7c1.1-0.1,2.2-0.2,3.3-0.3v-0.1c0-0.7-0.3-1.1-0.8-1.4     C55.8,17.5,55,17.4,54,17.4z M57.2,24v-2.5c-0.5,0-1.1,0.1-1.7,0.2c-0.6,0.1-1.1,0.2-1.4,0.3c-0.4,0.1-0.7,0.3-0.9,0.5     c-0.2,0.2-0.3,0.5-0.3,0.9c0,0.2,0,0.5,0.1,0.6c0,0.2,0.2,0.3,0.3,0.4c0.2,0.1,0.4,0.2,0.6,0.3c0.2,0.1,0.6,0.1,1.1,0.1     c0.4,0,0.8-0.1,1.2-0.2C56.5,24.5,56.9,24.2,57.2,24z"></path>
			<path class="st0" d="M32.4,4.5c-5.9-2.4-12.2-3.1-17.7-2.3l0,0c3.9-0.5,9.7,0,14.6,1.9c3.7,1.5,6.6,3.6,8.8,5.9L16.9,4.7l1.4,2.6     C13.1,8.2,9,10.4,6.5,13.8c-5.1,7.2,0.2,16.9,12,21.6c5.9,2.4,12.2,3.1,17.7,2.3v0c-3.9,0.5-9.7,0-14.6-1.9     c-3.7-1.5-6.6-3.6-8.6-5.9l20.7,5.9l-1.7-3.1c5.2-0.9,9.9-3.2,12.3-6.7C49.6,19,44.2,9.3,32.4,4.5z M31.6,32.3l-2-3.9h6     L31.6,32.3z M39.4,22.2c-0.3,0.4-0.7,0.9-1.2,1.3c-1.2,1.2-2.9,2.3-4.8,3c-1.3,0.6-2.6,1-3.9,1.3c0,0,0,0,0,0l-0.1,0l-1.6-3     l-14.8,4.3l-0.5,0.2l-0.1-0.1c-2.8-3.9-3.1-8-0.7-11.4c1.3-1.8,3.2-3.2,5.7-4.2c1.2-0.5,2.5-1,3.8-1.2l0.1,0l1.8,3.1l15.3-4.7     l0.3-0.1l0.1,0.1C41.5,14.6,41.8,18.8,39.4,22.2z"></path>
		</g>
	</g>
</g>
</svg>
