<?xml version="1.0" encoding="UTF-8" standalone="no"?>
<svg
   xmlns:dc="http://purl.org/dc/elements/1.1/"
   xmlns:cc="http://creativecommons.org/ns#"
   xmlns:rdf="http://www.w3.org/1999/02/22-rdf-syntax-ns#"
   xmlns:svg="http://www.w3.org/2000/svg"
   xmlns="http://www.w3.org/2000/svg"
   xmlns:sodipodi="http://sodipodi.sourceforge.net/DTD/sodipodi-0.dtd"
   xmlns:inkscape="http://www.inkscape.org/namespaces/inkscape"
   height="88.464005"
   width="176.16832"
   xml:space="preserve"
   viewBox="0 0 264.25248 165.824"
   y="0px"
   x="0px"
   id="Layer_1"
   version="1.1"
   sodipodi:docname="arm.svg"
   inkscape:version="0.92.4 (unknown)"><sodipodi:namedview
   pagecolor="#ffffff"
   bordercolor="#666666"
   borderopacity="1"
   objecttolerance="10"
   gridtolerance="10"
   guidetolerance="10"
   inkscape:pageopacity="0"
   inkscape:pageshadow="2"
   inkscape:window-width="1916"
   inkscape:window-height="1041"
   id="namedview7"
   showgrid="false"
   fit-margin-top="25"
   fit-margin-bottom="25"
   fit-margin-left="25"
   fit-margin-right="25"
   inkscape:zoom="1.3276956"
   inkscape:cx="91.125235"
   inkscape:cy="44.589288"
   inkscape:window-x="3840"
   inkscape:window-y="18"
   inkscape:window-maximized="0"
   inkscape:current-layer="Layer_1" /><metadata
   id="metadata11"><rdf:RDF><cc:Work
       rdf:about=""><dc:format>image/svg+xml</dc:format><dc:type
         rdf:resource="http://purl.org/dc/dcmitype/StillImage" /><dc:title></dc:title></cc:Work></rdf:RDF></metadata><defs
   id="defs9" />
<style
   id="style2"
   type="text/css">
	.st0{fill:#0091BD;}
</style>
<path
   style="fill:#0091bd"
   id="path4"
   d="m 57.914244,48.761999 h 15.9 V 116.862 h -15.9 v -7.1 c -6.999991,8.1 -15.499995,9.2 -20.399995,9.2 -21,0 -33.0000004,-17.5 -33.0000004,-36.199997 0,-22.2 15.2000004,-35.800004 33.2000004,-35.800004 5,0 13.799994,1.3 20.199995,9.700004 z M 20.714249,83.062003 c 0,11.8 7.4,21.699997 18.9,21.699997 10.000004,0 19.299995,-7.299997 19.299995,-21.499997 0,-14.9 -9.199991,-22 -19.299995,-22 -11.5,0 -18.9,9.7 -18.9,21.8 z M 92.614244,48.761999 h 15.899996 v 6.100004 c 1.8,-2.100004 4.4,-4.400004 6.6,-5.700004 3.1,-1.8 6.1,-2.3 9.7,-2.3 3.9,0 8.1,0.6 12.5,3.2 l -6.5,14.400004 c -3.6,-2.3 -6.5,-2.4 -8.1,-2.4 -3.4,0 -6.8,0.5 -9.9,3.7 -4.4,4.7 -4.4,11.2 -4.4,15.7 V 116.762 H 92.514244 V 48.761999 Z m 54.899996,0 h 15.9 v 6.300004 c 5.3,-6.500004 11.6,-8.100004 16.8,-8.100004 7.1,0 13.8,3.4 17.6,10.000004 5.7,-8.100004 14.2,-10.000004 20.2,-10.000004 8.3,0 15.5,3.9 19.4,10.700004 1.3,2.3 3.6,7.3 3.6,17.2 V 116.962 h -15.9 V 79.462003 c 0,-7.6 -0.8,-10.7 -1.5,-12.1 -1,-2.6 -3.4,-6 -9.1,-6 -3.9,0 -7.3,2.1 -9.4,5 -2.8,3.9 -3.1,9.7 -3.1,15.5 V 116.962 h -15.9 V 79.462003 c 0,-7.6 -0.8,-10.7 -1.5,-12.1 -1,-2.6 -3.4,-6 -9.1,-6 -3.9,0 -7.3,2.1 -9.4,5 -2.8,3.9 -3.1,9.7 -3.1,15.5 V 116.962 h -15.5 z"
   class="st0"
   inkscape:connector-curvature="0" />
</svg>