<?xml version="1.0" encoding="UTF-8"?> <svg xmlns="http://www.w3.org/2000/svg" xmlns:xlink="http://www.w3.org/1999/xlink" width="160px" height="55px" viewBox="0 0 160 55" version="1.1"><title>OpenSi Logo</title><g id="Page-Templates" stroke="none" stroke-width="1" fill="none" fill-rule="evenodd"><g id="Homepage" transform="translate(-120.000000, -67.000000)"><g id="OpenSi-Logo" transform="translate(120.000000, 67.000000)"><path d="M70.519177,12.3687243 C70.519177,12.9981893 70.273251,13.5176955 69.7813992,13.9269136 C69.2895473,14.3361317 68.6070782,14.5405761 67.7333333,14.5405761 C66.978107,14.5405761 66.2541564,14.371358 65.5614815,14.0329218 C64.8691358,13.6948148 64.4223868,13.4251852 64.221893,13.2243621 C64.02107,13.0238683 63.865679,12.8605761 63.7557202,12.7344856 L61.5720165,14.9066667 L61.8432922,15.2016461 C62.0006584,15.3906173 62.2604115,15.622716 62.6225514,15.8979424 C62.9843621,16.1734979 63.4034568,16.4451029 63.8798354,16.712428 C64.3555556,16.9800823 64.9616461,17.2102058 65.6974486,17.4031276 C66.433251,17.5957202 67.1944033,17.6921811 67.9812346,17.6921811 C69.9802469,17.6921811 71.5479835,17.1963786 72.6851029,16.2051029 C73.8222222,15.2134979 74.3907819,13.9348148 74.3907819,12.3687243 C74.3907819,11.2592593 74.1037037,10.3423868 73.5292181,9.61843621 C72.9547325,8.8944856 72.2561317,8.37497942 71.4340741,8.06024691 C70.6116872,7.7455144 69.793251,7.47028807 68.9787654,7.23423868 C68.1642798,6.99786008 67.4719342,6.70880658 66.9013992,6.36641975 C66.3308642,6.02436214 66.0454321,5.56971193 66.0454321,5.00312757 C66.0454321,4.49942387 66.2561317,4.07078189 66.6768724,3.71654321 C67.0979424,3.36230453 67.6546502,3.1855144 68.3473251,3.1855144 C68.9218107,3.1855144 69.4804938,3.31917695 70.0233745,3.58683128 C70.5662551,3.85415638 70.9224691,4.06880658 71.0916872,4.23012346 C71.2609053,4.39144033 71.3925926,4.52707819 71.4870782,4.63736626 L73.65893,2.33547325 L73.4465844,2.09942387 C73.3125926,1.93415638 73.0903704,1.73958848 72.7795885,1.51506173 C72.4688066,1.2908642 72.1066667,1.07061728 71.6934979,0.854320988 C71.2806584,0.637695473 70.7512757,0.449053498 70.1060082,0.287736626 C69.4607407,0.126419753 68.7917695,0.0457613169 68.0994239,0.0457613169 C66.3446914,0.0457613169 64.9181893,0.529711934 63.8205761,1.49761317 C62.7226337,2.4655144 62.1738272,3.63390947 62.1738272,5.00312757 C62.1738272,6.11259259 62.4612346,7.02946502 63.0357202,7.75341564 C63.6098765,8.47736626 64.3045267,8.99687243 65.1190123,9.31160494 C65.9334979,9.62633745 66.7519342,9.8999177 67.5739918,10.1320165 C68.3963786,10.3641152 69.0930041,10.6531687 69.6635391,10.9995062 C70.2337449,11.3458436 70.519177,11.8021399 70.519177,12.3687243" id="Fill-1" fill="#0032A0"></path><polygon id="Fill-2" fill="#0032A0" points="62.58107 42.9639506 80.6139918 42.9639506 80.6139918 39.3283951 62.58107 39.3283951"></polygon><path d="M3.75374486,8.86880658 C3.75374486,7.30666667 4.28082305,5.98880658 5.33530864,4.9145679 C6.38979424,3.84032922 7.67440329,3.30337449 9.18946502,3.30337449 C10.7041975,3.30337449 11.9888066,3.84032922 13.0432922,4.9145679 C14.0977778,5.98880658 14.624856,7.30666667 14.624856,8.86880658 C14.624856,10.4309465 14.0977778,11.7468313 13.0432922,12.8171193 C11.9888066,13.8874074 10.7041975,14.4223868 9.18946502,14.4223868 C7.67440329,14.4223868 6.38979424,13.8874074 5.33530864,12.8171193 C4.28082305,11.7468313 3.75374486,10.4309465 3.75374486,8.86880658 L3.75374486,8.86880658 Z M0,8.86288066 C0,11.2944856 0.887242798,13.3738272 2.66205761,15.1012346 C4.43654321,16.8283128 6.61234568,17.6921811 9.18946502,17.6921811 C11.7665844,17.6921811 13.9423868,16.8283128 15.7168724,15.1012346 C17.491358,13.3738272 18.3786008,11.2944856 18.3786008,8.86288066 C18.3786008,6.43127572 17.491358,4.35390947 15.7168724,2.63045267 C13.9423868,0.907325103 11.7665844,0.0454320988 9.18946502,0.0454320988 C6.61234568,0.0454320988 4.43654321,0.907325103 2.66205761,2.63045267 C0.887242798,4.35390947 0,6.43127572 0,8.86288066 L0,8.86288066 Z M26.8309465,17.5621399 C28.3654321,17.5621399 29.6974486,16.9662551 30.8266667,15.7741564 C31.9558848,14.5817284 32.5204938,13.1239506 32.5204938,11.400823 C32.5204938,9.67736626 31.9558848,8.21958848 30.8266667,7.02748971 C29.6974486,5.83539095 28.3654321,5.23917695 26.8309465,5.23917695 C26.3983539,5.23917695 25.9812346,5.3000823 25.5799177,5.42222222 C25.1786008,5.54403292 24.8520165,5.68164609 24.6001646,5.83539095 C24.3483128,5.98880658 24.1142387,6.16197531 23.8979424,6.3545679 C23.6813169,6.54748971 23.5397531,6.67917695 23.4729218,6.74995885 C23.4060905,6.82074074 23.3567078,6.88 23.3254321,6.92707819 L23.3254321,5.47522634 L20.0674897,5.47522634 L20.0674897,22.4019753 L23.3254321,22.4019753 L23.3254321,15.8742387 L23.6911934,16.3111111 C23.935144,16.5863374 24.3502881,16.8638683 24.9366255,17.1433745 C25.522963,17.4225514 26.1544033,17.5621399 26.8309465,17.5621399 L26.8309465,17.5621399 Z M26.2350617,8.14288066 C27.0416461,8.14288066 27.7260905,8.44773663 28.2887243,9.05777778 C28.851358,9.66748971 29.1328395,10.4483951 29.1328395,11.400823 C29.1328395,12.3529218 28.851358,13.1358025 28.2887243,13.7497942 C27.7260905,14.3634568 27.0416461,14.6702881 26.2350617,14.6702881 C25.4284774,14.6702881 24.7417284,14.3634568 24.175144,13.7497942 C23.6085597,13.1358025 23.3254321,12.3529218 23.3254321,11.400823 C23.3254321,10.4483951 23.6085597,9.66748971 24.175144,9.05777778 C24.7417284,8.44773663 25.4284774,8.14288066 26.2350617,8.14288066 L26.2350617,8.14288066 Z M46.1655967,12.4865844 L46.283786,11.1647737 C46.283786,9.47292181 45.7211523,8.06222222 44.5955556,6.93300412 C43.4702881,5.80378601 42.061893,5.23917695 40.3700412,5.23917695 C38.6781893,5.23917695 37.2263374,5.84296296 36.0144856,7.0508642 C34.8026337,8.25909465 34.1965432,9.70897119 34.1965432,11.400823 C34.1965432,13.0926749 34.810535,14.5425514 36.0378601,15.7504527 C37.2655144,16.9583539 38.7489712,17.5621399 40.4879012,17.5621399 C41.101893,17.5621399 41.6977778,17.491358 42.276214,17.3497942 C42.8546502,17.2082305 43.3247737,17.0449383 43.6869136,16.8599177 C44.0487243,16.6748971 44.3911111,16.4645267 44.7137449,16.2284774 C45.0363786,15.992428 45.246749,15.8251852 45.3451852,15.726749 L45.5634568,15.5084774 L43.8755556,13.3366255 L43.5334979,13.7023868 C43.320823,13.9463374 42.9530864,14.1883128 42.4296296,14.4283128 C41.9065021,14.6683128 41.3379424,14.7884774 40.7239506,14.7884774 C39.8742387,14.7884774 39.1700412,14.5659259 38.611358,14.1214815 C38.0523457,13.6767078 37.7102881,13.1318519 37.5841975,12.4865844 L46.1655967,12.4865844 Z M40.3700412,8.02469136 C41.0623868,8.02469136 41.646749,8.22946502 42.1227984,8.63868313 C42.5988477,9.04790123 42.8997531,9.56707819 43.0258436,10.1965432 L37.5841975,10.1965432 C37.78107,9.55127572 38.1214815,9.02814815 38.6054321,8.62683128 C39.0893827,8.2255144 39.6773663,8.02469136 40.3700412,8.02469136 L40.3700412,8.02469136 Z M51.6319342,5.47522634 L48.374321,5.47522634 L48.374321,17.3260905 L51.6319342,17.3260905 L51.6319342,11.1647737 C51.6319342,10.2755556 51.850535,9.58880658 52.2870782,9.10485597 C52.7239506,8.62090535 53.3122634,8.37893004 54.0516872,8.37893004 C54.7285597,8.37893004 55.2813169,8.60115226 55.7102881,9.04592593 C56.1392593,9.49037037 56.3535802,10.0747325 56.3535802,10.7986831 L56.3535802,17.3260905 L59.6115226,17.3260905 L59.6115226,10.4329218 C59.6115226,8.84312757 59.1845267,7.58024691 58.330535,6.64395062 C57.4768724,5.7073251 56.3733333,5.23917695 55.0195885,5.23917695 C54.374321,5.23917695 53.7586831,5.39654321 53.1723457,5.71127572 C52.5860082,6.02600823 52.2064198,6.27588477 52.033251,6.46090535 C51.8600823,6.64592593 51.7264198,6.80131687 51.6319342,6.92707819 L51.6319342,5.47522634 L51.6319342,5.47522634 Z" id="Fill-3" fill="#2CCCD3"></path><polygon id="Fill-4" fill="#0032A0" points="102.611029 42.8187654 104.987654 42.8187654 104.987654 31.7537449 102.611029 31.7537449"></polygon><path d="M108.259095,36.0207407 C108.320988,35.9384362 108.40856,35.837037 108.521481,35.716214 C108.634733,35.5950617 108.882963,35.4317695 109.266173,35.2260082 C109.649383,35.0202469 110.052016,34.9175309 110.473745,34.9175309 C111.358683,34.9175309 112.08,35.2233745 112.638025,35.8357202 C113.196379,36.4477366 113.475226,37.2734156 113.475226,38.312428 L113.475226,42.8187654 L111.345514,42.8187654 L111.345514,38.5517695 C111.345514,38.0783539 111.205597,37.6964609 110.925103,37.4057613 C110.644938,37.1153909 110.283457,36.9698765 109.840988,36.9698765 C109.357366,36.9698765 108.97284,37.1282305 108.687407,37.4446091 C108.401975,37.7609877 108.259095,38.2097119 108.259095,38.7907819 L108.259095,42.8187654 L106.129712,42.8187654 L106.129712,35.0719342 L108.259095,35.0719342 L108.259095,36.0207407" id="Fill-5" fill="#0032A0"></path><path d="M119.162798,37.3632922 C119.131852,37.3221399 119.081811,37.2658436 119.012346,37.1937449 C118.942881,37.1216461 118.797366,37.0278189 118.576132,36.9119342 C118.354897,36.7963786 118.128724,36.7384362 117.897284,36.7384362 C117.603951,36.7384362 117.37251,36.8013169 117.202634,36.9274074 C117.033086,37.0534979 116.948148,37.1986831 116.948148,37.3632922 C116.948148,37.5641152 117.068971,37.731358 117.310947,37.8650206 C117.552593,37.9986831 117.847243,38.1181893 118.194239,38.2238683 C118.541564,38.3292181 118.89251,38.4553086 119.247407,38.6018107 C119.602634,38.748642 119.900905,38.9850206 120.142551,39.3116049 C120.384527,39.6385185 120.50535,40.0434568 120.50535,40.5270782 C120.50535,41.2213992 120.23144,41.8027984 119.683621,42.2709465 C119.135802,42.7390947 118.38321,42.9731687 117.426502,42.9731687 C117.014979,42.9731687 116.624198,42.9241152 116.253827,42.8263374 C115.883457,42.7285597 115.582551,42.6103704 115.350782,42.4714403 C115.119342,42.3325103 114.917531,42.1948971 114.74535,42.0586008 C114.57284,41.9223045 114.448066,41.8077366 114.371029,41.7152263 L114.263045,41.553251 L115.451193,40.3726749 C115.492346,40.4345679 115.55786,40.5129218 115.648066,40.6080658 C115.737942,40.7032099 115.926914,40.8319342 116.214979,40.9939095 C116.503045,41.1558848 116.801646,41.2368724 117.110123,41.2368724 C117.449547,41.2368724 117.705679,41.171358 117.87786,41.04 C118.05037,40.9089712 118.136296,40.7377778 118.136296,40.5270782 C118.136296,40.3160494 118.015473,40.1399177 117.773827,39.9983539 C117.531852,39.8571193 117.23358,39.7336626 116.878683,39.6279835 C116.523786,39.5226337 116.17284,39.3952263 115.825514,39.2460905 C115.478189,39.0969547 115.183868,38.8655144 114.941893,38.5517695 C114.700247,38.2380247 114.579424,37.8419753 114.579424,37.3632922 C114.579424,36.74107 114.868807,36.1777778 115.447243,35.6737449 C116.026008,35.1693827 116.737119,34.9175309 117.580905,34.9175309 C118.115885,34.9175309 118.608395,35.0176132 119.058436,35.2184362 C119.508477,35.41893 119.821235,35.6144856 119.996049,35.8047737 L120.266008,36.105679 L119.162798,37.3632922" id="Fill-6" fill="#0032A0"></path><path d="M122.712428,32.7878189 L124.61037,32.7878189 L124.61037,35.2339095 L126.184691,35.2339095 L126.184691,37.1318519 L124.61037,37.1318519 L124.61037,40.2106996 C124.61037,40.4523457 124.699259,40.658107 124.876708,40.8279835 C125.054156,40.9978601 125.279342,41.0824691 125.551934,41.0824691 C125.690864,41.0824691 125.825844,41.0683128 125.956872,41.04 C126.08823,41.0120165 126.187325,40.9823868 126.254156,40.9514403 L126.346667,40.9204938 L126.346667,42.7413992 C125.924938,42.90107 125.448889,42.978107 124.919177,42.9731687 C123.28856,42.9731687 122.473086,42.0780247 122.473086,40.2877366 L122.473086,37.1318519 L121.130535,37.1318519 L121.130535,35.2339095 L121.840329,35.2339095 C122.082305,35.2339095 122.288066,35.1387654 122.457613,34.9484774 C122.62749,34.7578601 122.712428,34.5109465 122.712428,34.2077366 L122.712428,32.7878189" id="Fill-7" fill="#0032A0"></path><path d="M127.604938,42.8187654 L129.742222,42.8187654 L129.742222,35.0719342 L127.604938,35.0719342 L127.604938,42.8187654 Z M129.557202,33.7214815 C129.3307,33.9374486 129.022222,34.0454321 128.631111,34.0454321 C128.271276,34.0454321 127.984527,33.9374486 127.770864,33.7214815 C127.557531,33.5055144 127.450535,33.2187654 127.450535,32.8612346 C127.450535,32.5037037 127.558848,32.2169547 127.774815,32.0006584 C127.990782,31.7846914 128.276214,31.6767078 128.631111,31.6767078 C129.022222,31.6767078 129.3307,31.7846914 129.557202,32.0006584 C129.783374,32.2169547 129.896626,32.5037037 129.896626,32.8612346 C129.896626,33.2187654 129.783374,33.5055144 129.557202,33.7214815 L129.557202,33.7214815 Z" id="Fill-8" fill="#0032A0"></path><path d="M132.505021,32.7878189 L134.403292,32.7878189 L134.403292,35.2339095 L135.977284,35.2339095 L135.977284,37.1318519 L134.403292,37.1318519 L134.403292,40.2106996 C134.403292,40.4523457 134.491852,40.658107 134.6693,40.8279835 C134.846749,40.9978601 135.071934,41.0824691 135.344527,41.0824691 C135.483457,41.0824691 135.618436,41.0683128 135.749465,41.04 C135.880823,41.0120165 135.979918,40.9823868 136.046749,40.9514403 L136.139259,40.9204938 L136.139259,42.7413992 C135.717531,42.90107 135.241481,42.978107 134.71177,42.9731687 C133.081152,42.9731687 132.265679,42.0780247 132.265679,40.2877366 L132.265679,37.1318519 L130.923128,37.1318519 L130.923128,35.2339095 L131.633251,35.2339095 C131.874897,35.2339095 132.080658,35.1387654 132.250535,34.9484774 C132.420082,34.7578601 132.505021,34.5109465 132.505021,34.2077366 L132.505021,32.7878189" id="Fill-9" fill="#0032A0"></path><path d="M142.852675,42.0316049 C142.790782,42.1037037 142.70321,42.1922634 142.590288,42.2979424 C142.477037,42.4032922 142.228807,42.5422222 141.845597,42.7144033 C141.462387,42.8869136 141.059753,42.9731687 140.638025,42.9731687 C139.753416,42.9731687 139.03177,42.6758848 138.473745,42.0819753 C137.91572,41.4877366 137.636543,40.6966255 137.636543,39.7089712 L137.636543,35.0719342 L139.766255,35.0719342 L139.766255,39.5009053 C139.766255,39.9328395 139.908807,40.2903704 140.194239,40.5731687 C140.48,40.8562963 140.838519,40.9978601 141.270782,40.9978601 C141.754403,40.9978601 142.13893,40.840823 142.424362,40.5270782 C142.709794,40.2133333 142.852675,39.7655967 142.852675,39.1845267 L142.852675,35.0719342 L144.982058,35.0719342 L144.982058,42.8187654 L142.852675,42.8187654 L142.852675,42.0316049" id="Fill-10" fill="#0032A0"></path><path d="M147.744856,32.7878189 L149.643128,32.7878189 L149.643128,35.2339095 L151.217119,35.2339095 L151.217119,37.1318519 L149.643128,37.1318519 L149.643128,40.2106996 C149.643128,40.4523457 149.731687,40.658107 149.909136,40.8279835 C150.086584,40.9978601 150.31177,41.0824691 150.584362,41.0824691 C150.723292,41.0824691 150.858272,41.0683128 150.9893,41.04 C151.120658,41.0120165 151.219753,40.9823868 151.286584,40.9514403 L151.379095,40.9204938 L151.379095,42.7413992 C150.957366,42.90107 150.481317,42.978107 149.951605,42.9731687 C148.320988,42.9731687 147.505514,42.0780247 147.505514,40.2877366 L147.505514,37.1318519 L146.162963,37.1318519 L146.162963,35.2339095 L146.873086,35.2339095 C147.114733,35.2339095 147.320494,35.1387654 147.49037,34.9484774 C147.659918,34.7578601 147.744856,34.5109465 147.744856,34.2077366 L147.744856,32.7878189" id="Fill-11" fill="#0032A0"></path><path d="M154.963292,37.1318519 C154.646914,37.3942387 154.424362,37.7362963 154.295638,38.1583539 L157.85284,38.1583539 C157.770535,37.7468313 157.573663,37.4070782 157.262551,37.1397531 C156.95144,36.8720988 156.569547,36.7384362 156.116872,36.7384362 C155.664198,36.7384362 155.279671,36.869465 154.963292,37.1318519 Z M154.295638,39.6549794 C154.377942,40.077037 154.601811,40.433251 154.966914,40.7239506 C155.332346,41.014321 155.792593,41.1598354 156.348313,41.1598354 C156.74963,41.1598354 157.120988,41.0811523 157.463045,40.9244444 C157.805432,40.7674074 158.045761,40.6093827 158.184691,40.4497119 L158.40856,40.2106996 L159.51177,41.6302881 L159.369218,41.7731687 C159.304691,41.8373663 159.167078,41.9466667 158.956379,42.10107 C158.74535,42.2554733 158.521481,42.3930864 158.285103,42.5139095 C158.048395,42.6347325 157.740905,42.7413992 157.362963,42.8342387 C156.984691,42.926749 156.595226,42.9731687 156.193909,42.9731687 C155.057119,42.9731687 154.087572,42.578107 153.284938,41.788642 C152.482634,40.9988477 152.081317,40.051358 152.081317,38.9451852 C152.081317,37.8393416 152.477366,36.8915226 153.269465,36.1017284 C154.061564,35.3122634 155.0107,34.9175309 156.116872,34.9175309 C157.222716,34.9175309 158.143539,35.2865844 158.879012,36.0246914 C159.614815,36.7627984 159.982551,37.6849383 159.982551,38.7907819 L159.905185,39.6549794 L154.295638,39.6549794 L154.295638,39.6549794 Z" id="Fill-12" fill="#0032A0"></path><polygon id="Fill-13" fill="#0032A0" points="76.9784362 17.3264198 80.6139918 17.3264198 80.6139918 0.399670782 76.9784362 0.399670782"></polygon><polyline id="Fill-14" fill="#0032A0" points="58.2821399 52.0793416 44.5251029 39.3310288 0.445761317 39.3283951 0.445761317 42.9639506 43.021893 42.9639506 55.7112757 54.6502058 58.2821399 52.0793416"></polyline><path d="M105.466008,8.46353909 C106.155391,9.16312757 106.995226,9.51308642 107.985514,9.51308642 C108.975473,9.51308642 109.815309,9.16312757 110.504691,8.46353909 C111.194074,7.76395062 111.538765,6.9037037 111.538765,5.88246914 C111.538765,4.86156379 111.194074,4 110.504691,3.29777778 C109.815309,2.59555556 108.975473,2.24460905 107.985514,2.24460905 C106.995226,2.24460905 106.155391,2.59555556 105.466008,3.29777778 C104.776955,4 104.432263,4.86156379 104.432263,5.88246914 C104.432263,6.9037037 104.776955,7.76395062 105.466008,8.46353909 Z M103.718519,1.80477366 C104.878354,0.6781893 106.300576,0.114897119 107.985514,0.114897119 C109.670123,0.114897119 111.092346,0.6781893 112.25251,1.80477366 C113.412346,2.93135802 113.992428,4.28938272 113.992428,5.87884774 C113.992428,7.46831276 113.412346,8.82765432 112.25251,9.95654321 C111.092346,11.0857613 109.670123,11.6503704 107.985514,11.6503704 C106.300576,11.6503704 104.878354,11.0857613 103.718519,9.95654321 C102.558354,8.82765432 101.978601,7.46831276 101.978601,5.87884774 C101.978601,4.28938272 102.558354,2.93135802 103.718519,1.80477366 L103.718519,1.80477366 Z" id="Fill-15" fill="#0032A0"></path><path d="M117.781728,6.00592593 C117.411358,6.40460905 117.226008,6.91522634 117.226008,7.53777778 C117.226008,8.16 117.411358,8.67193416 117.781728,9.07325103 C118.152099,9.4745679 118.600823,9.67506173 119.127901,9.67506173 C119.655309,9.67506173 120.102716,9.4745679 120.470453,9.07325103 C120.838519,8.67193416 121.022222,8.16 121.022222,7.53777778 C121.022222,6.91522634 120.838519,6.40460905 120.470453,6.00592593 C120.102716,5.60757202 119.655309,5.40806584 119.127901,5.40806584 C118.600823,5.40806584 118.152099,5.60757202 117.781728,6.00592593 Z M118.279177,11.2915226 C117.895967,11.1088066 117.624691,10.9277366 117.46535,10.7476543 L117.226008,10.4622222 L117.226008,14.7292181 L115.096296,14.7292181 L115.096296,3.66419753 L117.226008,3.66419753 L117.226008,4.61333333 C117.246749,4.58238683 117.278683,4.54386831 117.322469,4.49744856 C117.366255,4.45135802 117.458765,4.36510288 117.600329,4.23901235 C117.741564,4.11292181 117.89465,4 118.059259,3.89958848 C118.223868,3.79917695 118.437531,3.70930041 118.699918,3.62962963 C118.961975,3.54995885 119.234897,3.50979424 119.517695,3.50979424 C120.520823,3.50979424 121.391276,3.89958848 122.129712,4.67884774 C122.867819,5.458107 123.236872,6.41119342 123.236872,7.53777778 C123.236872,8.66436214 122.867819,9.61711934 122.129712,10.3963786 C121.391276,11.1759671 120.520823,11.5654321 119.517695,11.5654321 C119.075226,11.5654321 118.662387,11.4742387 118.279177,11.2915226 L118.279177,11.2915226 Z" id="Fill-16" fill="#0032A0"></path><path d="M127.214486,5.72444444 C126.898107,5.98683128 126.675556,6.32888889 126.54716,6.75061728 L130.104033,6.75061728 C130.021728,6.33909465 129.825185,5.99967078 129.513745,5.73201646 C129.202634,5.46469136 128.820741,5.33102881 128.368066,5.33102881 C127.915391,5.33102881 127.530864,5.46205761 127.214486,5.72444444 Z M126.54716,8.24757202 C126.629465,8.66930041 126.853004,9.0255144 127.218436,9.31621399 C127.583539,9.60691358 128.043786,9.75209877 128.599506,9.75209877 C129.000823,9.75209877 129.37251,9.67374486 129.714568,9.51703704 C130.056626,9.36 130.296955,9.20197531 130.435885,9.04230453 L130.659753,8.80329218 L131.762963,10.2228807 L131.620412,10.3657613 C131.555885,10.4299588 131.418272,10.5392593 131.207572,10.6936626 C130.996543,10.8480658 130.772675,10.9853498 130.536296,11.1065021 C130.299588,11.2273251 129.992099,11.3339918 129.614156,11.4265021 C129.235885,11.5193416 128.84642,11.5654321 128.445103,11.5654321 C127.308313,11.5654321 126.338765,11.1706996 125.536132,10.3812346 C124.733827,9.59144033 124.33251,8.6436214 124.33251,7.53777778 C124.33251,6.43160494 124.72856,5.48411523 125.520658,4.69432099 C126.313086,3.90485597 127.261893,3.50979424 128.368066,3.50979424 C129.473909,3.50979424 130.394733,3.87917695 131.130206,4.61728395 C131.866008,5.35539095 132.233745,6.27753086 132.233745,7.38337449 L132.156708,8.24757202 L126.54716,8.24757202 L126.54716,8.24757202 Z" id="Fill-17" fill="#0032A0"></path><path d="M135.628971,4.61333333 C135.690864,4.53102881 135.778436,4.42930041 135.891358,4.30847737 C136.004609,4.18765432 136.25284,4.02436214 136.636049,3.81860082 C137.019259,3.61283951 137.421893,3.50979424 137.843621,3.50979424 C138.72823,3.50979424 139.449877,3.81596708 140.007901,4.42831276 C140.566255,5.04032922 140.845103,5.86600823 140.845103,6.90502058 L140.845103,11.4110288 L138.715391,11.4110288 L138.715391,7.14436214 C138.715391,6.6709465 138.575473,6.2890535 138.294979,5.99835391 C138.014815,5.70765432 137.653333,5.56246914 137.210864,5.56246914 C136.727243,5.56246914 136.342716,5.72049383 136.057284,6.03687243 C135.771852,6.35325103 135.628971,6.80197531 135.628971,7.38337449 L135.628971,11.4110288 L133.499588,11.4110288 L133.499588,3.66419753 L135.628971,3.66419753 L135.628971,4.61333333" id="Fill-18" fill="#0032A0"></path><path d="M107.267819,22.9787654 C106.894815,22.7525926 106.439506,22.5632922 105.902222,22.4115226 C105.364609,22.2597531 104.82963,22.0809877 104.297284,21.8752263 C103.764609,21.669465 103.310617,21.3300412 102.935309,20.8569547 C102.559671,20.3835391 102.372016,19.7843621 102.372016,19.0590947 C102.372016,18.1639506 102.730864,17.4001646 103.44823,16.7674074 C104.165926,16.1346502 105.098272,15.8182716 106.245267,15.8182716 C106.697942,15.8182716 107.135473,15.8709465 107.557202,15.9766255 C107.97893,16.0819753 108.324938,16.2054321 108.594897,16.3469959 C108.865185,16.4882305 109.101564,16.632428 109.304691,16.77893 C109.508148,16.9254321 109.653333,17.0528395 109.740905,17.160823 L109.879835,17.3152263 L108.459918,18.8197531 C108.398354,18.7476543 108.312099,18.6590947 108.201481,18.5537449 C108.090864,18.4480658 107.858107,18.3081481 107.50321,18.1330041 C107.148313,17.9581893 106.782881,17.8706173 106.407572,17.8706173 C105.954897,17.8706173 105.590782,17.9865021 105.315556,18.2179424 C105.040329,18.4493827 104.902716,18.7298765 104.902716,19.0590947 C104.902716,19.429465 105.089383,19.7264198 105.462387,19.9502881 C105.835062,20.1741564 106.287737,20.3631276 106.820412,20.5172016 C107.352757,20.6716049 107.887737,20.8516872 108.42535,21.0574486 C108.962634,21.2632099 109.419259,21.6026337 109.794897,22.0760494 C110.170206,22.5491358 110.358189,23.148642 110.358189,23.8739095 C110.358189,24.8974486 109.986502,25.7333333 109.243128,26.3815638 C108.499753,27.0297942 107.474897,27.3537449 106.16823,27.3537449 C105.653992,27.3537449 105.156214,27.2908642 104.675226,27.1647737 C104.194239,27.0386831 103.798189,26.8882305 103.487078,26.7134156 C103.175638,26.5386008 102.901728,26.360823 102.665021,26.18107 C102.428642,26.0009877 102.258765,25.8492181 102.156049,25.7257613 L101.978601,25.5328395 L103.405761,24.1129218 C103.47786,24.1952263 103.579588,24.3022222 103.710617,24.433251 C103.841975,24.5642798 104.133663,24.7407407 104.586337,24.9616461 C105.039012,25.1828807 105.512428,25.2934979 106.006255,25.2934979 C106.577119,25.2934979 107.023539,25.1598354 107.344856,24.8925103 C107.666502,24.624856 107.82716,24.2854321 107.82716,23.8739095 C107.82716,23.5035391 107.640823,23.2052675 107.267819,22.9787654" id="Fill-19" fill="#0032A0"></path><path d="M113.992757,24.7032099 C114.368066,25.0969547 114.813169,25.2934979 115.327407,25.2934979 C115.841975,25.2934979 116.286749,25.0969547 116.662387,24.7032099 C117.038025,24.3097942 117.225679,23.8235391 117.225679,23.2451029 C117.225679,22.6663374 117.038025,22.1787654 116.662387,21.782716 C116.286749,21.3866667 115.841975,21.1888066 115.327407,21.1888066 C114.813169,21.1888066 114.368066,21.3866667 113.992757,21.782716 C113.617119,22.1787654 113.429465,22.6663374 113.429465,23.2451029 C113.429465,23.8235391 113.617119,24.3097942 113.992757,24.7032099 Z M118.209383,26.0612346 C117.394239,26.8665021 116.43358,27.2688066 115.327407,27.2688066 C114.221564,27.2688066 113.259588,26.8665021 112.441811,26.0612346 C111.623704,25.2562963 111.214815,24.3163786 111.214815,23.2411523 C111.214815,22.1659259 111.623704,21.2260082 112.441811,20.42107 C113.259588,19.6158025 114.221564,19.2134979 115.327407,19.2134979 C116.43358,19.2134979 117.394239,19.6158025 118.209383,20.42107 C119.024856,21.2260082 119.432428,22.1659259 119.432428,23.2411523 C119.432428,24.3163786 119.024856,25.2562963 118.209383,26.0612346 L118.209383,26.0612346 Z" id="Fill-20" fill="#0032A0"></path><path d="M125.598354,26.327572 C125.536461,26.3996708 125.449218,26.4882305 125.335967,26.5939095 C125.222716,26.6992593 124.974486,26.8381893 124.591276,27.0103704 C124.208066,27.1828807 123.805432,27.2688066 123.383704,27.2688066 C122.499095,27.2688066 121.777449,26.9718519 121.219424,26.3776132 C120.661399,25.7837037 120.382222,24.9925926 120.382222,24.0049383 L120.382222,19.367572 L122.511934,19.367572 L122.511934,23.7965432 C122.511934,24.2288066 122.654486,24.5863374 122.939918,24.8691358 C123.225679,25.1522634 123.584198,25.2934979 124.016461,25.2934979 C124.500082,25.2934979 124.884609,25.1367901 125.170041,24.8230453 C125.455473,24.5089712 125.598354,24.0615638 125.598354,23.4801646 L125.598354,19.367572 L127.727737,19.367572 L127.727737,27.1147325 L125.598354,27.1147325 L125.598354,26.327572" id="Fill-21" fill="#0032A0"></path><path d="M133.840658,21.4278189 C133.680988,21.3764609 133.444609,21.3481481 133.130535,21.3428807 C132.569877,21.3428807 132.12642,21.5203292 131.799506,21.8752263 C131.472922,22.2304527 131.30963,22.7394239 131.30963,23.4031276 L131.30963,27.1147325 L129.179918,27.1147325 L129.179918,19.367572 L131.30963,19.367572 L131.30963,20.3167078 C131.371523,20.2446091 131.458765,20.1507819 131.572016,20.0352263 C131.685267,19.9193416 131.933498,19.7662551 132.316708,19.5759671 C132.699918,19.385679 133.102551,19.290535 133.52428,19.290535 L133.840658,19.290535 L133.840658,21.4278189" id="Fill-22" fill="#0032A0"></path><path d="M135.514403,20.42107 C136.342387,19.6158025 137.325103,19.2134979 138.461893,19.2134979 C138.86321,19.2134979 139.245103,19.2688066 139.607572,19.3790947 C139.97037,19.4897119 140.267325,19.62107 140.498765,19.7728395 C140.730535,19.9246091 140.936296,20.0776955 141.116049,20.2317695 C141.296132,20.3861728 141.42749,20.5198354 141.509794,20.6330864 L141.62535,20.7950617 L140.282798,22.1376132 C140.241646,22.0658436 140.173498,21.9706996 140.078354,21.8521811 C139.98321,21.7339918 139.777449,21.5809053 139.46107,21.393251 C139.144691,21.2052675 138.811523,21.1114403 138.461893,21.1114403 C137.901235,21.1114403 137.41893,21.3198354 137.014979,21.7366255 C136.611358,22.1530864 136.409547,22.6561317 136.409547,23.2451029 C136.409547,23.8340741 136.612675,24.3367901 137.01893,24.7535802 C137.425185,25.1700412 137.906173,25.3784362 138.461893,25.3784362 C138.811523,25.3784362 139.144691,25.2934979 139.46107,25.1239506 C139.777449,24.9540741 140.007572,24.7841975 140.15177,24.6146502 L140.360165,24.3522634 L141.62535,25.6948148 C141.594733,25.7359671 141.552263,25.7939095 141.498272,25.8683128 C141.44428,25.9430453 141.319506,26.0691358 141.123951,26.2465844 C140.928395,26.4240329 140.717366,26.5807407 140.491193,26.7173663 C140.264691,26.8536626 139.97037,26.9794239 139.607572,27.0953086 C139.245103,27.2111934 138.86321,27.2688066 138.461893,27.2688066 C137.325103,27.2688066 136.342387,26.8665021 135.514403,26.0612346 C134.686091,25.2562963 134.271934,24.3163786 134.271934,23.2411523 C134.271934,22.1659259 134.686091,21.2260082 135.514403,20.42107" id="Fill-23" fill="#0032A0"></path><path d="M145.13284,21.4278189 C144.816461,21.6902058 144.593909,22.0322634 144.465185,22.4539918 L148.022387,22.4539918 C147.940082,22.0424691 147.74321,21.7030453 147.432099,21.4357202 C147.120988,21.1680658 146.739095,21.0344033 146.28642,21.0344033 C145.833745,21.0344033 145.449218,21.1654321 145.13284,21.4278189 Z M144.465185,23.9509465 C144.54749,24.3726749 144.771358,24.7288889 145.136461,25.0195885 C145.501893,25.3102881 145.96214,25.4554733 146.51786,25.4554733 C146.918848,25.4554733 147.290535,25.3771193 147.632593,25.2204115 C147.97465,25.0633745 148.215309,24.9053498 148.354239,24.745679 L148.577778,24.5066667 L149.681317,25.9262551 L149.538436,26.0691358 C149.474239,26.1333333 149.336626,26.2426337 149.125926,26.397037 C148.914897,26.5514403 148.691029,26.6890535 148.454321,26.8098765 C148.217942,26.9306996 147.910453,27.0373663 147.53251,27.1298765 C147.154239,27.222716 146.764774,27.2688066 146.363457,27.2688066 C145.226667,27.2688066 144.25679,26.8740741 143.454486,26.0846091 C142.651852,25.2948148 142.250864,24.3469959 142.250864,23.2411523 C142.250864,22.1353086 142.646914,21.1874897 143.439012,20.3976955 C144.231111,19.6082305 145.180247,19.2134979 146.28642,19.2134979 C147.392263,19.2134979 148.313086,19.5825514 149.04856,20.3206584 C149.784362,21.0587654 150.152099,21.9809053 150.152099,23.086749 L150.074733,23.9509465 L144.465185,23.9509465 L144.465185,23.9509465 Z" id="Fill-24" fill="#0032A0"></path></g></g></g></svg> 